<svg xmlns="http://www.w3.org/2000/svg" viewBox="0 0 240 240"><g class="c"><circle cx="120" cy="130" r="78" fill="#fde68a" stroke="#f5c74c" stroke-width="4"/><path d="M116 44 C110 28 126 22 124 40 C136 28 146 40 128 48 Z" fill="#f5c74c"/><path d="M108 128 L120 140 L132 128 L120 122 Z" fill="#f59e42"/><path d="M82 98 L106 108 M158 98 L134 108" stroke="#4a2b33" stroke-width="5" stroke-linecap="round"/><circle cx="94" cy="116" r="6" fill="#4a2b33"/><circle cx="146" cy="116" r="6" fill="#4a2b33"/><path d="M102 148 Q111 140 120 148 Q129 156 138 148" stroke="#4a2b33" stroke-width="5" fill="none" stroke-linecap="round"/><path class="fx" d="M186 76 l10 -10 M192 88 l14 -4 M178 70 l4 -14" stroke="#e0426a" stroke-width="5" stroke-linecap="round"/></g></svg>