<svg xmlns="http://www.w3.org/2000/svg" viewBox="0 0 240 240"><g class="c"><circle cx="120" cy="130" r="78" fill="#fde68a" stroke="#f5c74c" stroke-width="4"/><path d="M116 44 C110 28 126 22 124 40 C136 28 146 40 128 48 Z" fill="#f5c74c"/><path d="M108 128 L120 140 L132 128 L120 122 Z" fill="#f59e42"/><path d="M84 113 Q94 102 104 113" stroke="#4a2b33" stroke-width="5" fill="none" stroke-linecap="round"/><path d="M136 113 Q146 102 156 113" stroke="#4a2b33" stroke-width="5" fill="none" stroke-linecap="round"/><path d="M102 140 Q120 166 138 140 Z" fill="#4a2b33"/><path d="M110 152 Q120 160 130 152" fill="#f27d95"/><ellipse class="fx" cx="52" cy="172" rx="13" ry="17" fill="#f2a5b5"/><ellipse class="fx2" cx="188" cy="172" rx="13" ry="17" fill="#f2a5b5"/><path d="M34 154 l-8 -8 M206 154 l8 -8 M30 174 l-11 0 M210 174 l11 0" stroke="#e0a63f" stroke-width="4" stroke-linecap="round"/></g></svg>