<svg xmlns="http://www.w3.org/2000/svg" viewBox="0 0 240 240"><g class="c"><circle cx="120" cy="130" r="78" fill="#fde68a" stroke="#f5c74c" stroke-width="4"/><path d="M116 44 C110 28 126 22 124 40 C136 28 146 40 128 48 Z" fill="#f5c74c"/><path d="M108 128 L120 140 L132 128 L120 122 Z" fill="#f59e42"/><path d="M84 106 Q94 114 104 106" stroke="#4a2b33" stroke-width="5" fill="none" stroke-linecap="round"/><path d="M136 106 Q146 114 156 106" stroke="#4a2b33" stroke-width="5" fill="none" stroke-linecap="round"/><path d="M102 140 Q120 166 138 140 Z" fill="#4a2b33"/><path d="M110 152 Q120 160 130 152" fill="#f27d95"/><path class="fx" d="M94 122 C88 132 88 138 94 142 C100 138 100 132 94 122 Z" fill="#7db8e8"/><path class="fx2" d="M146 122 C140 132 140 138 146 142 C152 138 152 132 146 122 Z" fill="#7db8e8"/></g></svg>