<svg xmlns="http://www.w3.org/2000/svg" viewBox="0 0 240 240"><g class="c"><circle cx="120" cy="130" r="78" fill="#fde68a" stroke="#f5c74c" stroke-width="4"/><path d="M116 44 C110 28 126 22 124 40 C136 28 146 40 128 48 Z" fill="#f5c74c"/><path d="M108 128 L120 140 L132 128 L120 122 Z" fill="#f59e42"/><path d="M94 121 C94 121 81 112 81 105 C81 99 87 97 90.5 101 L94 104 L97.5 101 C101 97 107 99 107 105 C107 112 94 121 94 121 Z" fill="#e0426a"/><path d="M146 121 C146 121 133 112 133 105 C133 99 139 97 142.5 101 L146 104 L149.5 101 C153 97 159 99 159 105 C159 112 146 121 146 121 Z" fill="#e0426a"/><path d="M102 142 Q120 168 138 142 Z" fill="#4a2b33"/><path d="M110 154 Q120 162 130 154" fill="#f27d95"/></g></svg>