<svg xmlns="http://www.w3.org/2000/svg" viewBox="0 0 240 240"><g class="c"><circle cx="120" cy="130" r="78" fill="#fde68a" stroke="#f5c74c" stroke-width="4"/><path d="M116 44 C110 28 126 22 124 40 C136 28 146 40 128 48 Z" fill="#f5c74c"/><path d="M108 128 L120 140 L132 128 L120 122 Z" fill="#f59e42"/><path d="M94 101 L97.2 108.4 L105 109.2 L99 114.8 L100.8 122.4 L94 118 L87.2 122.4 L89 114.8 L83 109.2 L90.8 108.4 Z" fill="#f5b433"/><path d="M146 101 L149.2 108.4 L157 109.2 L151 114.8 L152.8 122.4 L146 118 L139.2 122.4 L141 114.8 L135 109.2 L142.8 108.4 Z" fill="#f5b433"/><path d="M102 140 Q120 166 138 140 Z" fill="#4a2b33"/><path d="M110 152 Q120 160 130 152" fill="#f27d95"/><g class="fx"><circle cx="48" cy="56" r="5" fill="#f5b433"/><circle cx="66" cy="40" r="5" fill="#7fb069"/><circle cx="186" cy="44" r="5" fill="#7db8e8"/><circle cx="200" cy="64" r="5" fill="#e0426a"/></g><path d="M112 30 L136 22 L128 46 Z" fill="#e0426a"/></g></svg>