<svg xmlns="http://www.w3.org/2000/svg" viewBox="0 0 240 240"><g class="c"><circle cx="120" cy="130" r="78" fill="#fde68a" stroke="#f5c74c" stroke-width="4"/><path d="M116 44 C110 28 126 22 124 40 C136 28 146 40 128 48 Z" fill="#f5c74c"/><path d="M108 128 L120 140 L132 128 L120 122 Z" fill="#f59e42"/><path d="M86 104 L102 120 M102 104 L86 120" stroke="#4a2b33" stroke-width="5" stroke-linecap="round"/><path d="M138 104 L154 120 M154 104 L138 120" stroke="#4a2b33" stroke-width="5" stroke-linecap="round"/><path d="M102 148 Q111 140 120 148 Q129 156 138 148" stroke="#4a2b33" stroke-width="5" fill="none" stroke-linecap="round"/><rect x="86" y="70" width="68" height="20" rx="10" fill="#fff" stroke="#7db8e8" stroke-width="3"/><path d="M96 80 h48" stroke="#7db8e8" stroke-width="3" stroke-dasharray="5 5"/><path class="fx" d="M170 104 C164 114 164 120 170 124 C176 120 176 114 170 104 Z" fill="#7db8e8"/></g></svg>