<svg xmlns="http://www.w3.org/2000/svg" viewBox="0 0 240 240"><g class="c"><circle cx="120" cy="130" r="78" fill="#fde68a" stroke="#f5c74c" stroke-width="4"/><path d="M116 44 C110 28 126 22 124 40 C136 28 146 40 128 48 Z" fill="#f5c74c"/><path d="M108 128 L120 140 L132 128 L120 122 Z" fill="#f59e42"/><path d="M84 113 Q94 102 104 113" stroke="#4a2b33" stroke-width="5" fill="none" stroke-linecap="round"/><circle cx="146" cy="112" r="6" fill="#4a2b33"/><path d="M104 144 Q120 158 136 144" stroke="#4a2b33" stroke-width="5" fill="none" stroke-linecap="round"/><ellipse cx="76" cy="130" rx="10" ry="6" fill="#f78ca8" opacity="0.55"/><ellipse cx="164" cy="130" rx="10" ry="6" fill="#f78ca8" opacity="0.55"/><path class="fx" d="M184 76.2 C184 76.2 172.1 67.7 172.1 60.9 C172.1 54.95 178.05 53.25 180.94 56.65 L184 59.2 L187.06 56.65 C189.95 53.25 195.9 54.95 195.9 60.9 C195.9 67.7 184 76.2 184 76.2 Z" fill="#e0426a"/></g></svg>