<svg xmlns="http://www.w3.org/2000/svg" viewBox="0 0 240 240"><g class="c"><rect x="40" y="56" width="160" height="144" rx="26" fill="#fbfaf6" stroke="#e5e0d3" stroke-width="4"/><rect x="40" y="56" width="160" height="30" rx="15" fill="#e5e0d3" opacity="0.35"/><path d="M84 102 Q94 110 104 102" stroke="#4a2b33" stroke-width="5" fill="none" stroke-linecap="round"/><path d="M136 102 Q146 110 156 102" stroke="#4a2b33" stroke-width="5" fill="none" stroke-linecap="round"/><path d="M102 136 Q120 162 138 136 Z" fill="#4a2b33"/><path d="M110 148 Q120 156 130 148" fill="#f27d95"/><path class="fx" d="M94 118 C88 128 88 134 94 138 C100 134 100 128 94 118 Z" fill="#7db8e8"/><path class="fx2" d="M146 118 C140 128 140 134 146 138 C152 134 152 128 146 118 Z" fill="#7db8e8"/></g></svg>