<svg xmlns="http://www.w3.org/2000/svg" viewBox="0 0 240 240"><g class="c"><rect x="40" y="56" width="160" height="144" rx="26" fill="#fbfaf6" stroke="#e5e0d3" stroke-width="4"/><rect x="40" y="56" width="160" height="30" rx="15" fill="#e5e0d3" opacity="0.35"/><path d="M94 117 C94 117 81 108 81 101 C81 95 87 93 90.5 97 L94 100 L97.5 97 C101 93 107 95 107 101 C107 108 94 117 94 117 Z" fill="#e0426a"/><path d="M146 117 C146 117 133 108 133 101 C133 95 139 93 142.5 97 L146 100 L149.5 97 C153 93 159 95 159 101 C159 108 146 117 146 117 Z" fill="#e0426a"/><path d="M102 138 Q120 164 138 138 Z" fill="#4a2b33"/><path d="M110 150 Q120 158 130 150" fill="#f27d95"/></g></svg>