<svg xmlns="http://www.w3.org/2000/svg" viewBox="0 0 240 240"><g class="c"><rect x="40" y="56" width="160" height="144" rx="26" fill="#fbfaf6" stroke="#e5e0d3" stroke-width="4"/><rect x="40" y="56" width="160" height="30" rx="15" fill="#e5e0d3" opacity="0.35"/><path d="M84 109 Q94 98 104 109" stroke="#4a2b33" stroke-width="5" fill="none" stroke-linecap="round"/><path d="M136 110 L156 110" stroke="#4a2b33" stroke-width="5" stroke-linecap="round"/><path class="" d="M120 149.6 C120 149.6 108.8 141.6 108.8 135.2 C108.8 129.6 114.4 128 117.12 131.2 L120 133.6 L122.88 131.2 C125.6 128 131.2 129.6 131.2 135.2 C131.2 141.6 120 149.6 120 149.6 Z" fill="#e0426a"/><ellipse cx="76" cy="126" rx="10" ry="6" fill="#f78ca8" opacity="0.55"/><ellipse cx="164" cy="126" rx="10" ry="6" fill="#f78ca8" opacity="0.55"/><path class="fx" d="M186 107.2 C186 107.2 170.6 96.2 170.6 87.4 C170.6 79.7 178.3 77.5 182.04 81.9 L186 85.2 L189.96 81.9 C193.7 77.5 201.4 79.7 201.4 87.4 C201.4 96.2 186 107.2 186 107.2 Z" fill="#e0426a"/></g></svg>