<svg xmlns="http://www.w3.org/2000/svg" viewBox="0 0 240 240"><g class="c"><rect x="40" y="56" width="160" height="144" rx="26" fill="#fbfaf6" stroke="#e5e0d3" stroke-width="4"/><rect x="40" y="56" width="160" height="30" rx="15" fill="#e5e0d3" opacity="0.35"/><path d="M94 97 L97.2 104.4 L105 105.2 L99 110.8 L100.8 118.4 L94 114 L87.2 118.4 L89 110.8 L83 105.2 L90.8 104.4 Z" fill="#f5b433"/><path d="M146 97 L149.2 104.4 L157 105.2 L151 110.8 L152.8 118.4 L146 114 L139.2 118.4 L141 110.8 L135 105.2 L142.8 104.4 Z" fill="#f5b433"/><path d="M102 136 Q120 162 138 136 Z" fill="#4a2b33"/><path d="M110 148 Q120 156 130 148" fill="#f27d95"/><g class="fx"><circle cx="48" cy="56" r="5" fill="#f5b433"/><circle cx="66" cy="40" r="5" fill="#7fb069"/><circle cx="186" cy="44" r="5" fill="#7db8e8"/><circle cx="200" cy="64" r="5" fill="#e0426a"/></g><path d="M112 30 L136 22 L128 46 Z" fill="#e0426a"/></g></svg>