<svg xmlns="http://www.w3.org/2000/svg" viewBox="0 0 240 240"><style>@keyframes m{0%,100%{transform:scale(1)}50%{transform:scale(1.07)}}.c{animation:m 0.9s ease-in-out infinite;transform-origin:120px 130px}@keyframes f{0%{opacity:0;transform:translateY(6px)}30%{opacity:1}100%{opacity:0;transform:translateY(-14px)}}.fx{animation:f 1.4s ease-out infinite}.fx2{animation:f 1.4s ease-out 0.5s infinite}</style><g class="c"><ellipse cx="88" cy="52" rx="20" ry="46" fill="#fdf3f5" stroke="#f4b8c8" stroke-width="4"/><ellipse cx="152" cy="52" rx="20" ry="46" fill="#fdf3f5" stroke="#f4b8c8" stroke-width="4"/><ellipse cx="88" cy="54" rx="9" ry="30" fill="#f4b8c8"/><ellipse cx="152" cy="54" rx="9" ry="30" fill="#f4b8c8"/><circle cx="120" cy="132" r="76" fill="#fdf3f5" stroke="#f4b8c8" stroke-width="4"/><path d="M84 117 Q94 106 104 117" stroke="#4a2b33" stroke-width="5" fill="none" stroke-linecap="round"/><path d="M136 117 Q146 106 156 117" stroke="#4a2b33" stroke-width="5" fill="none" stroke-linecap="round"/><path d="M102 144 Q120 170 138 144 Z" fill="#4a2b33"/><path d="M110 156 Q120 164 130 156" fill="#f27d95"/><ellipse class="fx" cx="52" cy="176" rx="13" ry="17" fill="#f2a5b5"/><ellipse class="fx2" cx="188" cy="176" rx="13" ry="17" fill="#f2a5b5"/><path d="M34 158 l-8 -8 M206 158 l8 -8 M30 178 l-11 0 M210 178 l11 0" stroke="#e0a63f" stroke-width="4" stroke-linecap="round"/></g></svg>