<svg xmlns="http://www.w3.org/2000/svg" viewBox="0 0 240 240"><style>@keyframes m{0%,100%{transform:translateX(0)}25%{transform:translateX(-7px)}75%{transform:translateX(7px)}}.c{animation:m 0.5s linear infinite}@keyframes f{0%{opacity:0;transform:translateY(6px)}30%{opacity:1}100%{opacity:0;transform:translateY(-14px)}}.fx{animation:f 1.4s ease-out infinite}.fx2{animation:f 1.4s ease-out 0.5s infinite}</style><g class="c"><ellipse cx="88" cy="52" rx="20" ry="46" fill="#fdf3f5" stroke="#f4b8c8" stroke-width="4"/><ellipse cx="152" cy="52" rx="20" ry="46" fill="#fdf3f5" stroke="#f4b8c8" stroke-width="4"/><ellipse cx="88" cy="54" rx="9" ry="30" fill="#f4b8c8"/><ellipse cx="152" cy="54" rx="9" ry="30" fill="#f4b8c8"/><circle cx="120" cy="132" r="76" fill="#fdf3f5" stroke="#f4b8c8" stroke-width="4"/><path d="M84 110 Q94 118 104 110" stroke="#4a2b33" stroke-width="5" fill="none" stroke-linecap="round"/><path d="M136 110 Q146 118 156 110" stroke="#4a2b33" stroke-width="5" fill="none" stroke-linecap="round"/><path d="M102 144 Q120 170 138 144 Z" fill="#4a2b33"/><path d="M110 156 Q120 164 130 156" fill="#f27d95"/><path class="fx" d="M94 126 C88 136 88 142 94 146 C100 142 100 136 94 126 Z" fill="#7db8e8"/><path class="fx2" d="M146 126 C140 136 140 142 146 146 C152 142 152 136 146 126 Z" fill="#7db8e8"/></g></svg>