<svg xmlns="http://www.w3.org/2000/svg" viewBox="0 0 240 240"><style>@keyframes m{0%,100%{transform:scale(1)}50%{transform:scale(1.07)}}.c{animation:m 0.9s ease-in-out infinite;transform-origin:120px 130px}@keyframes f{0%{opacity:0;transform:translateY(6px)}30%{opacity:1}100%{opacity:0;transform:translateY(-14px)}}.fx{animation:f 1.4s ease-out infinite}.fx2{animation:f 1.4s ease-out 0.5s infinite}</style><g class="c"><ellipse cx="88" cy="52" rx="20" ry="46" fill="#fdf3f5" stroke="#f4b8c8" stroke-width="4"/><ellipse cx="152" cy="52" rx="20" ry="46" fill="#fdf3f5" stroke="#f4b8c8" stroke-width="4"/><ellipse cx="88" cy="54" rx="9" ry="30" fill="#f4b8c8"/><ellipse cx="152" cy="54" rx="9" ry="30" fill="#f4b8c8"/><circle cx="120" cy="132" r="76" fill="#fdf3f5" stroke="#f4b8c8" stroke-width="4"/><path d="M94 125 C94 125 81 116 81 109 C81 103 87 101 90.5 105 L94 108 L97.5 105 C101 101 107 103 107 109 C107 116 94 125 94 125 Z" fill="#e0426a"/><path d="M146 125 C146 125 133 116 133 109 C133 103 139 101 142.5 105 L146 108 L149.5 105 C153 101 159 103 159 109 C159 116 146 125 146 125 Z" fill="#e0426a"/><path d="M102 146 Q120 172 138 146 Z" fill="#4a2b33"/><path d="M110 158 Q120 166 130 158" fill="#f27d95"/></g></svg>