<svg xmlns="http://www.w3.org/2000/svg" viewBox="0 0 240 240"><style>@keyframes m{0%,100%{transform:translateY(0)}50%{transform:translateY(-10px)}}.c{animation:m 1.1s ease-in-out infinite}@keyframes f{0%{opacity:0;transform:translateY(6px)}30%{opacity:1}100%{opacity:0;transform:translateY(-14px)}}.fx{animation:f 1.4s ease-out infinite}.fx2{animation:f 1.4s ease-out 0.5s infinite}</style><g class="c"><ellipse cx="88" cy="52" rx="20" ry="46" fill="#fdf3f5" stroke="#f4b8c8" stroke-width="4"/><ellipse cx="152" cy="52" rx="20" ry="46" fill="#fdf3f5" stroke="#f4b8c8" stroke-width="4"/><ellipse cx="88" cy="54" rx="9" ry="30" fill="#f4b8c8"/><ellipse cx="152" cy="54" rx="9" ry="30" fill="#f4b8c8"/><circle cx="120" cy="132" r="76" fill="#fdf3f5" stroke="#f4b8c8" stroke-width="4"/><path d="M84 117 Q94 106 104 117" stroke="#4a2b33" stroke-width="5" fill="none" stroke-linecap="round"/><path d="M136 118 L156 118" stroke="#4a2b33" stroke-width="5" stroke-linecap="round"/><path class="" d="M120 157.6 C120 157.6 108.8 149.6 108.8 143.2 C108.8 137.6 114.4 136 117.12 139.2 L120 141.6 L122.88 139.2 C125.6 136 131.2 137.6 131.2 143.2 C131.2 149.6 120 157.6 120 157.6 Z" fill="#e0426a"/><ellipse cx="76" cy="134" rx="10" ry="6" fill="#f78ca8" opacity="0.55"/><ellipse cx="164" cy="134" rx="10" ry="6" fill="#f78ca8" opacity="0.55"/><path class="fx" d="M186 115.2 C186 115.2 170.6 104.2 170.6 95.4 C170.6 87.7 178.3 85.5 182.04 89.9 L186 93.2 L189.96 89.9 C193.7 85.5 201.4 87.7 201.4 95.4 C201.4 104.2 186 115.2 186 115.2 Z" fill="#e0426a"/></g></svg>