<svg xmlns="http://www.w3.org/2000/svg" viewBox="0 0 240 240"><style>@keyframes m{0%,100%{transform:scale(1)}50%{transform:scale(1.07)}}.c{animation:m 0.9s ease-in-out infinite;transform-origin:120px 130px}@keyframes f{0%{opacity:0;transform:translateY(6px)}30%{opacity:1}100%{opacity:0;transform:translateY(-14px)}}.fx{animation:f 1.4s ease-out infinite}.fx2{animation:f 1.4s ease-out 0.5s infinite}</style><g class="c"><ellipse cx="88" cy="52" rx="20" ry="46" fill="#fdf3f5" stroke="#f4b8c8" stroke-width="4"/><ellipse cx="152" cy="52" rx="20" ry="46" fill="#fdf3f5" stroke="#f4b8c8" stroke-width="4"/><ellipse cx="88" cy="54" rx="9" ry="30" fill="#f4b8c8"/><ellipse cx="152" cy="54" rx="9" ry="30" fill="#f4b8c8"/><circle cx="120" cy="132" r="76" fill="#fdf3f5" stroke="#f4b8c8" stroke-width="4"/><path d="M94 105 L97.2 112.4 L105 113.2 L99 118.8 L100.8 126.4 L94 122 L87.2 126.4 L89 118.8 L83 113.2 L90.8 112.4 Z" fill="#f5b433"/><path d="M146 105 L149.2 112.4 L157 113.2 L151 118.8 L152.8 126.4 L146 122 L139.2 126.4 L141 118.8 L135 113.2 L142.8 112.4 Z" fill="#f5b433"/><path d="M102 144 Q120 170 138 144 Z" fill="#4a2b33"/><path d="M110 156 Q120 164 130 156" fill="#f27d95"/><g class="fx"><circle cx="48" cy="56" r="5" fill="#f5b433"/><circle cx="66" cy="40" r="5" fill="#7fb069"/><circle cx="186" cy="44" r="5" fill="#7db8e8"/><circle cx="200" cy="64" r="5" fill="#e0426a"/></g><path d="M112 30 L136 22 L128 46 Z" fill="#e0426a"/></g></svg>