<svg xmlns="http://www.w3.org/2000/svg" viewBox="0 0 240 240"><style>@keyframes m{0%,100%{transform:rotate(-4deg)}50%{transform:rotate(4deg)}}.c{animation:m 1.6s ease-in-out infinite;transform-origin:120px 200px}@keyframes f{0%{opacity:0;transform:translateY(6px)}30%{opacity:1}100%{opacity:0;transform:translateY(-14px)}}.fx{animation:f 1.4s ease-out infinite}.fx2{animation:f 1.4s ease-out 0.5s infinite}</style><g class="c"><ellipse cx="88" cy="52" rx="20" ry="46" fill="#fdf3f5" stroke="#f4b8c8" stroke-width="4"/><ellipse cx="152" cy="52" rx="20" ry="46" fill="#fdf3f5" stroke="#f4b8c8" stroke-width="4"/><ellipse cx="88" cy="54" rx="9" ry="30" fill="#f4b8c8"/><ellipse cx="152" cy="54" rx="9" ry="30" fill="#f4b8c8"/><circle cx="120" cy="132" r="76" fill="#fdf3f5" stroke="#f4b8c8" stroke-width="4"/><path d="M86 108 L102 124 M102 108 L86 124" stroke="#4a2b33" stroke-width="5" stroke-linecap="round"/><path d="M138 108 L154 124 M154 108 L138 124" stroke="#4a2b33" stroke-width="5" stroke-linecap="round"/><path d="M102 152 Q111 144 120 152 Q129 160 138 152" stroke="#4a2b33" stroke-width="5" fill="none" stroke-linecap="round"/><rect x="86" y="74" width="68" height="20" rx="10" fill="#fff" stroke="#7db8e8" stroke-width="3"/><path d="M96 84 h48" stroke="#7db8e8" stroke-width="3" stroke-dasharray="5 5"/><path class="fx" d="M170 108 C164 118 164 124 170 128 C176 124 176 118 170 108 Z" fill="#7db8e8"/></g></svg>