<svg xmlns="http://www.w3.org/2000/svg" viewBox="0 0 240 240"><style>@keyframes m{0%,100%{transform:translateY(0)}50%{transform:translateY(-10px)}}.c{animation:m 1.1s ease-in-out infinite}@keyframes f{0%{opacity:0;transform:translateY(6px)}30%{opacity:1}100%{opacity:0;transform:translateY(-14px)}}.fx{animation:f 1.4s ease-out infinite}.fx2{animation:f 1.4s ease-out 0.5s infinite}</style><g class="c"><ellipse cx="88" cy="52" rx="20" ry="46" fill="#fdf3f5" stroke="#f4b8c8" stroke-width="4"/><ellipse cx="152" cy="52" rx="20" ry="46" fill="#fdf3f5" stroke="#f4b8c8" stroke-width="4"/><ellipse cx="88" cy="54" rx="9" ry="30" fill="#f4b8c8"/><ellipse cx="152" cy="54" rx="9" ry="30" fill="#f4b8c8"/><circle cx="120" cy="132" r="76" fill="#fdf3f5" stroke="#f4b8c8" stroke-width="4"/><path d="M84 117 Q94 106 104 117" stroke="#4a2b33" stroke-width="5" fill="none" stroke-linecap="round"/><circle cx="146" cy="116" r="6" fill="#4a2b33"/><path d="M104 148 Q120 162 136 148" stroke="#4a2b33" stroke-width="5" fill="none" stroke-linecap="round"/><ellipse cx="76" cy="134" rx="10" ry="6" fill="#f78ca8" opacity="0.55"/><ellipse cx="164" cy="134" rx="10" ry="6" fill="#f78ca8" opacity="0.55"/><path class="fx" d="M184 76.2 C184 76.2 172.1 67.7 172.1 60.9 C172.1 54.95 178.05 53.25 180.94 56.65 L184 59.2 L187.06 56.65 C189.95 53.25 195.9 54.95 195.9 60.9 C195.9 67.7 184 76.2 184 76.2 Z" fill="#e0426a"/></g></svg>