<svg xmlns="http://www.w3.org/2000/svg" viewBox="0 0 240 240"><style>@keyframes m{0%,100%{transform:rotate(-4deg)}50%{transform:rotate(4deg)}}.c{animation:m 1.6s ease-in-out infinite;transform-origin:120px 200px}@keyframes f{0%{opacity:0;transform:translateY(6px)}30%{opacity:1}100%{opacity:0;transform:translateY(-14px)}}.fx{animation:f 1.4s ease-out infinite}.fx2{animation:f 1.4s ease-out 0.5s infinite}</style><g class="c"><circle cx="66" cy="66" r="26" fill="#e8c9a8" stroke="#d9b28c" stroke-width="4"/><circle cx="174" cy="66" r="26" fill="#e8c9a8" stroke="#d9b28c" stroke-width="4"/><circle cx="66" cy="66" r="12" fill="#d9b28c"/><circle cx="174" cy="66" r="12" fill="#d9b28c"/><circle cx="120" cy="128" r="80" fill="#e8c9a8" stroke="#d9b28c" stroke-width="4"/><ellipse cx="120" cy="152" rx="26" ry="18" fill="#fff" opacity="0.65"/><path d="M86 104 L102 120 M102 104 L86 120" stroke="#4a2b33" stroke-width="5" stroke-linecap="round"/><path d="M138 104 L154 120 M154 104 L138 120" stroke="#4a2b33" stroke-width="5" stroke-linecap="round"/><path d="M102 148 Q111 140 120 148 Q129 156 138 148" stroke="#4a2b33" stroke-width="5" fill="none" stroke-linecap="round"/><rect x="86" y="70" width="68" height="20" rx="10" fill="#fff" stroke="#7db8e8" stroke-width="3"/><path d="M96 80 h48" stroke="#7db8e8" stroke-width="3" stroke-dasharray="5 5"/><path class="fx" d="M170 104 C164 114 164 120 170 124 C176 120 176 114 170 104 Z" fill="#7db8e8"/></g></svg>