<svg xmlns="http://www.w3.org/2000/svg" viewBox="0 0 240 240"><style>@keyframes m{0%,100%{transform:translateY(0)}50%{transform:translateY(-10px)}}.c{animation:m 1.1s ease-in-out infinite}@keyframes f{0%{opacity:0;transform:translateY(6px)}30%{opacity:1}100%{opacity:0;transform:translateY(-14px)}}.fx{animation:f 1.4s ease-out infinite}.fx2{animation:f 1.4s ease-out 0.5s infinite}</style><g class="c"><circle cx="66" cy="66" r="26" fill="#e8c9a8" stroke="#d9b28c" stroke-width="4"/><circle cx="174" cy="66" r="26" fill="#e8c9a8" stroke="#d9b28c" stroke-width="4"/><circle cx="66" cy="66" r="12" fill="#d9b28c"/><circle cx="174" cy="66" r="12" fill="#d9b28c"/><circle cx="120" cy="128" r="80" fill="#e8c9a8" stroke="#d9b28c" stroke-width="4"/><ellipse cx="120" cy="152" rx="26" ry="18" fill="#fff" opacity="0.65"/><path d="M84 113 Q94 102 104 113" stroke="#4a2b33" stroke-width="5" fill="none" stroke-linecap="round"/><circle cx="146" cy="112" r="6" fill="#4a2b33"/><path d="M104 144 Q120 158 136 144" stroke="#4a2b33" stroke-width="5" fill="none" stroke-linecap="round"/><ellipse cx="76" cy="130" rx="10" ry="6" fill="#f78ca8" opacity="0.55"/><ellipse cx="164" cy="130" rx="10" ry="6" fill="#f78ca8" opacity="0.55"/><path class="fx" d="M184 76.2 C184 76.2 172.1 67.7 172.1 60.9 C172.1 54.95 178.05 53.25 180.94 56.65 L184 59.2 L187.06 56.65 C189.95 53.25 195.9 54.95 195.9 60.9 C195.9 67.7 184 76.2 184 76.2 Z" fill="#e0426a"/></g></svg>