<svg xmlns="http://www.w3.org/2000/svg" viewBox="0 0 240 240"><g class="c"><path d="M120 210 C70 190 40 150 44 106 C46 78 78 62 120 62 C162 62 194 78 196 106 C200 150 170 190 120 210 Z" fill="#ef8296" stroke="#d76c81" stroke-width="4"/><path d="M96 52 C104 40 136 40 144 52 L132 64 L120 54 L108 64 Z" fill="#7fb069"/><ellipse cx="76" cy="170" rx="3.4" ry="5" fill="#fff" opacity="0.75"/><ellipse cx="100" cy="170" rx="3.4" ry="5" fill="#fff" opacity="0.75"/><ellipse cx="140" cy="170" rx="3.4" ry="5" fill="#fff" opacity="0.75"/><ellipse cx="164" cy="170" rx="3.4" ry="5" fill="#fff" opacity="0.75"/><path d="M82 102 L106 112 M158 102 L134 112" stroke="#4a2b33" stroke-width="5" stroke-linecap="round"/><circle cx="94" cy="120" r="6" fill="#4a2b33"/><circle cx="146" cy="120" r="6" fill="#4a2b33"/><path d="M102 152 Q111 144 120 152 Q129 160 138 152" stroke="#4a2b33" stroke-width="5" fill="none" stroke-linecap="round"/><path class="fx" d="M186 80 l10 -10 M192 92 l14 -4 M178 74 l4 -14" stroke="#e0426a" stroke-width="5" stroke-linecap="round"/></g></svg>