<svg xmlns="http://www.w3.org/2000/svg" viewBox="0 0 240 240"><g class="c"><path d="M120 210 C70 190 40 150 44 106 C46 78 78 62 120 62 C162 62 194 78 196 106 C200 150 170 190 120 210 Z" fill="#ef8296" stroke="#d76c81" stroke-width="4"/><path d="M96 52 C104 40 136 40 144 52 L132 64 L120 54 L108 64 Z" fill="#7fb069"/><ellipse cx="76" cy="170" rx="3.4" ry="5" fill="#fff" opacity="0.75"/><ellipse cx="100" cy="170" rx="3.4" ry="5" fill="#fff" opacity="0.75"/><ellipse cx="140" cy="170" rx="3.4" ry="5" fill="#fff" opacity="0.75"/><ellipse cx="164" cy="170" rx="3.4" ry="5" fill="#fff" opacity="0.75"/><path d="M84 117 Q94 106 104 117" stroke="#4a2b33" stroke-width="5" fill="none" stroke-linecap="round"/><path d="M136 117 Q146 106 156 117" stroke="#4a2b33" stroke-width="5" fill="none" stroke-linecap="round"/><path d="M102 144 Q120 170 138 144 Z" fill="#4a2b33"/><path d="M110 156 Q120 164 130 156" fill="#f27d95"/><ellipse class="fx" cx="52" cy="176" rx="13" ry="17" fill="#f2a5b5"/><ellipse class="fx2" cx="188" cy="176" rx="13" ry="17" fill="#f2a5b5"/><path d="M34 158 l-8 -8 M206 158 l8 -8 M30 178 l-11 0 M210 178 l11 0" stroke="#e0a63f" stroke-width="4" stroke-linecap="round"/></g></svg>