<svg xmlns="http://www.w3.org/2000/svg" viewBox="0 0 240 240"><g class="c"><path d="M120 210 C70 190 40 150 44 106 C46 78 78 62 120 62 C162 62 194 78 196 106 C200 150 170 190 120 210 Z" fill="#ef8296" stroke="#d76c81" stroke-width="4"/><path d="M96 52 C104 40 136 40 144 52 L132 64 L120 54 L108 64 Z" fill="#7fb069"/><ellipse cx="76" cy="170" rx="3.4" ry="5" fill="#fff" opacity="0.75"/><ellipse cx="100" cy="170" rx="3.4" ry="5" fill="#fff" opacity="0.75"/><ellipse cx="140" cy="170" rx="3.4" ry="5" fill="#fff" opacity="0.75"/><ellipse cx="164" cy="170" rx="3.4" ry="5" fill="#fff" opacity="0.75"/><path d="M84 110 Q94 118 104 110" stroke="#4a2b33" stroke-width="5" fill="none" stroke-linecap="round"/><path d="M136 110 Q146 118 156 110" stroke="#4a2b33" stroke-width="5" fill="none" stroke-linecap="round"/><path d="M102 144 Q120 170 138 144 Z" fill="#4a2b33"/><path d="M110 156 Q120 164 130 156" fill="#f27d95"/><path class="fx" d="M94 126 C88 136 88 142 94 146 C100 142 100 136 94 126 Z" fill="#7db8e8"/><path class="fx2" d="M146 126 C140 136 140 142 146 146 C152 142 152 136 146 126 Z" fill="#7db8e8"/></g></svg>