<svg xmlns="http://www.w3.org/2000/svg" viewBox="0 0 240 240"><g class="c"><path d="M120 210 C70 190 40 150 44 106 C46 78 78 62 120 62 C162 62 194 78 196 106 C200 150 170 190 120 210 Z" fill="#ef8296" stroke="#d76c81" stroke-width="4"/><path d="M96 52 C104 40 136 40 144 52 L132 64 L120 54 L108 64 Z" fill="#7fb069"/><ellipse cx="76" cy="170" rx="3.4" ry="5" fill="#fff" opacity="0.75"/><ellipse cx="100" cy="170" rx="3.4" ry="5" fill="#fff" opacity="0.75"/><ellipse cx="140" cy="170" rx="3.4" ry="5" fill="#fff" opacity="0.75"/><ellipse cx="164" cy="170" rx="3.4" ry="5" fill="#fff" opacity="0.75"/><path d="M94 125 C94 125 81 116 81 109 C81 103 87 101 90.5 105 L94 108 L97.5 105 C101 101 107 103 107 109 C107 116 94 125 94 125 Z" fill="#e0426a"/><path d="M146 125 C146 125 133 116 133 109 C133 103 139 101 142.5 105 L146 108 L149.5 105 C153 101 159 103 159 109 C159 116 146 125 146 125 Z" fill="#e0426a"/><path d="M102 146 Q120 172 138 146 Z" fill="#4a2b33"/><path d="M110 158 Q120 166 130 158" fill="#f27d95"/></g></svg>