<svg xmlns="http://www.w3.org/2000/svg" viewBox="0 0 240 240"><g class="c"><path d="M120 210 C70 190 40 150 44 106 C46 78 78 62 120 62 C162 62 194 78 196 106 C200 150 170 190 120 210 Z" fill="#ef8296" stroke="#d76c81" stroke-width="4"/><path d="M96 52 C104 40 136 40 144 52 L132 64 L120 54 L108 64 Z" fill="#7fb069"/><ellipse cx="76" cy="170" rx="3.4" ry="5" fill="#fff" opacity="0.75"/><ellipse cx="100" cy="170" rx="3.4" ry="5" fill="#fff" opacity="0.75"/><ellipse cx="140" cy="170" rx="3.4" ry="5" fill="#fff" opacity="0.75"/><ellipse cx="164" cy="170" rx="3.4" ry="5" fill="#fff" opacity="0.75"/><circle cx="94" cy="116" r="6" fill="#4a2b33"/><circle cx="146" cy="116" r="6" fill="#4a2b33"/><path d="M104 142 Q120 156 136 142" stroke="#4a2b33" stroke-width="5" fill="none" stroke-linecap="round"/><path class="fx" d="M138 148 C132 158 132 164 138 168 C144 164 144 158 138 148 Z" fill="#7db8e8"/><text class="" x="56" y="88" font-family="sans-serif" font-weight="bold" font-size="20" fill="#b0455c">밥…</text></g></svg>