<svg xmlns="http://www.w3.org/2000/svg" viewBox="0 0 240 240"><g class="c"><path d="M120 210 C70 190 40 150 44 106 C46 78 78 62 120 62 C162 62 194 78 196 106 C200 150 170 190 120 210 Z" fill="#ef8296" stroke="#d76c81" stroke-width="4"/><path d="M96 52 C104 40 136 40 144 52 L132 64 L120 54 L108 64 Z" fill="#7fb069"/><ellipse cx="76" cy="170" rx="3.4" ry="5" fill="#fff" opacity="0.75"/><ellipse cx="100" cy="170" rx="3.4" ry="5" fill="#fff" opacity="0.75"/><ellipse cx="140" cy="170" rx="3.4" ry="5" fill="#fff" opacity="0.75"/><ellipse cx="164" cy="170" rx="3.4" ry="5" fill="#fff" opacity="0.75"/><path d="M84 117 Q94 106 104 117" stroke="#4a2b33" stroke-width="5" fill="none" stroke-linecap="round"/><path d="M136 118 L156 118" stroke="#4a2b33" stroke-width="5" stroke-linecap="round"/><path class="" d="M120 157.6 C120 157.6 108.8 149.6 108.8 143.2 C108.8 137.6 114.4 136 117.12 139.2 L120 141.6 L122.88 139.2 C125.6 136 131.2 137.6 131.2 143.2 C131.2 149.6 120 157.6 120 157.6 Z" fill="#e0426a"/><ellipse cx="76" cy="134" rx="10" ry="6" fill="#f78ca8" opacity="0.55"/><ellipse cx="164" cy="134" rx="10" ry="6" fill="#f78ca8" opacity="0.55"/><path class="fx" d="M186 115.2 C186 115.2 170.6 104.2 170.6 95.4 C170.6 87.7 178.3 85.5 182.04 89.9 L186 93.2 L189.96 89.9 C193.7 85.5 201.4 87.7 201.4 95.4 C201.4 104.2 186 115.2 186 115.2 Z" fill="#e0426a"/></g></svg>