<svg xmlns="http://www.w3.org/2000/svg" viewBox="0 0 240 240"><g class="c"><path d="M120 210 C70 190 40 150 44 106 C46 78 78 62 120 62 C162 62 194 78 196 106 C200 150 170 190 120 210 Z" fill="#ef8296" stroke="#d76c81" stroke-width="4"/><path d="M96 52 C104 40 136 40 144 52 L132 64 L120 54 L108 64 Z" fill="#7fb069"/><ellipse cx="76" cy="170" rx="3.4" ry="5" fill="#fff" opacity="0.75"/><ellipse cx="100" cy="170" rx="3.4" ry="5" fill="#fff" opacity="0.75"/><ellipse cx="140" cy="170" rx="3.4" ry="5" fill="#fff" opacity="0.75"/><ellipse cx="164" cy="170" rx="3.4" ry="5" fill="#fff" opacity="0.75"/><path d="M86 108 L102 124 M102 108 L86 124" stroke="#4a2b33" stroke-width="5" stroke-linecap="round"/><path d="M138 108 L154 124 M154 108 L138 124" stroke="#4a2b33" stroke-width="5" stroke-linecap="round"/><path d="M102 144 Q120 170 138 144 Z" fill="#4a2b33"/><path d="M110 156 Q120 164 130 156" fill="#f27d95"/><text class="fx" x="168" y="98" font-family="sans-serif" font-weight="bold" font-size="26" fill="#b0455c">ㅋㅋ</text></g></svg>