<svg xmlns="http://www.w3.org/2000/svg" viewBox="0 0 240 240"><g class="c"><path d="M120 210 C70 190 40 150 44 106 C46 78 78 62 120 62 C162 62 194 78 196 106 C200 150 170 190 120 210 Z" fill="#ef8296" stroke="#d76c81" stroke-width="4"/><path d="M96 52 C104 40 136 40 144 52 L132 64 L120 54 L108 64 Z" fill="#7fb069"/><ellipse cx="76" cy="170" rx="3.4" ry="5" fill="#fff" opacity="0.75"/><ellipse cx="100" cy="170" rx="3.4" ry="5" fill="#fff" opacity="0.75"/><ellipse cx="140" cy="170" rx="3.4" ry="5" fill="#fff" opacity="0.75"/><ellipse cx="164" cy="170" rx="3.4" ry="5" fill="#fff" opacity="0.75"/><path d="M84 117 Q94 106 104 117" stroke="#4a2b33" stroke-width="5" fill="none" stroke-linecap="round"/><path d="M136 117 Q146 106 156 117" stroke="#4a2b33" stroke-width="5" fill="none" stroke-linecap="round"/><path d="M104 148 Q120 162 136 148" stroke="#4a2b33" stroke-width="5" fill="none" stroke-linecap="round"/><circle class="fx" cx="188" cy="166" r="22" fill="#fff" stroke="#7fb069" stroke-width="4"/><text class="fx" x="175" y="173" font-family="sans-serif" font-weight="bold" font-size="18" fill="#7fb069">OK</text></g></svg>