<svg xmlns="http://www.w3.org/2000/svg" viewBox="0 0 240 240"><g class="c"><path d="M120 210 C70 190 40 150 44 106 C46 78 78 62 120 62 C162 62 194 78 196 106 C200 150 170 190 120 210 Z" fill="#ef8296" stroke="#d76c81" stroke-width="4"/><path d="M96 52 C104 40 136 40 144 52 L132 64 L120 54 L108 64 Z" fill="#7fb069"/><ellipse cx="76" cy="170" rx="3.4" ry="5" fill="#fff" opacity="0.75"/><ellipse cx="100" cy="170" rx="3.4" ry="5" fill="#fff" opacity="0.75"/><ellipse cx="140" cy="170" rx="3.4" ry="5" fill="#fff" opacity="0.75"/><ellipse cx="164" cy="170" rx="3.4" ry="5" fill="#fff" opacity="0.75"/><circle cx="94" cy="118" r="6" fill="#4a2b33"/><circle cx="146" cy="118" r="6" fill="#4a2b33"/><path d="M104 158 Q120 144 136 158" stroke="#4a2b33" stroke-width="5" fill="none" stroke-linecap="round"/><path class="fx" d="M100 128 C94 138 94 144 100 148 C106 144 106 138 100 128 Z" fill="#7db8e8"/></g></svg>