<svg xmlns="http://www.w3.org/2000/svg" viewBox="0 0 240 240"><g class="c"><path d="M120 210 C70 190 40 150 44 106 C46 78 78 62 120 62 C162 62 194 78 196 106 C200 150 170 190 120 210 Z" fill="#ef8296" stroke="#d76c81" stroke-width="4"/><path d="M96 52 C104 40 136 40 144 52 L132 64 L120 54 L108 64 Z" fill="#7fb069"/><ellipse cx="76" cy="170" rx="3.4" ry="5" fill="#fff" opacity="0.75"/><ellipse cx="100" cy="170" rx="3.4" ry="5" fill="#fff" opacity="0.75"/><ellipse cx="140" cy="170" rx="3.4" ry="5" fill="#fff" opacity="0.75"/><ellipse cx="164" cy="170" rx="3.4" ry="5" fill="#fff" opacity="0.75"/><path d="M86 108 L102 124 M102 108 L86 124" stroke="#4a2b33" stroke-width="5" stroke-linecap="round"/><path d="M138 108 L154 124 M154 108 L138 124" stroke="#4a2b33" stroke-width="5" stroke-linecap="round"/><path d="M102 152 Q111 144 120 152 Q129 160 138 152" stroke="#4a2b33" stroke-width="5" fill="none" stroke-linecap="round"/><rect x="86" y="74" width="68" height="20" rx="10" fill="#fff" stroke="#7db8e8" stroke-width="3"/><path d="M96 84 h48" stroke="#7db8e8" stroke-width="3" stroke-dasharray="5 5"/><path class="fx" d="M170 108 C164 118 164 124 170 128 C176 124 176 118 170 108 Z" fill="#7db8e8"/></g></svg>