<svg xmlns="http://www.w3.org/2000/svg" viewBox="0 0 240 240"><g class="c"><path d="M120 210 C70 190 40 150 44 106 C46 78 78 62 120 62 C162 62 194 78 196 106 C200 150 170 190 120 210 Z" fill="#ef8296" stroke="#d76c81" stroke-width="4"/><path d="M96 52 C104 40 136 40 144 52 L132 64 L120 54 L108 64 Z" fill="#7fb069"/><ellipse cx="76" cy="170" rx="3.4" ry="5" fill="#fff" opacity="0.75"/><ellipse cx="100" cy="170" rx="3.4" ry="5" fill="#fff" opacity="0.75"/><ellipse cx="140" cy="170" rx="3.4" ry="5" fill="#fff" opacity="0.75"/><ellipse cx="164" cy="170" rx="3.4" ry="5" fill="#fff" opacity="0.75"/><path d="M84 117 Q94 106 104 117" stroke="#4a2b33" stroke-width="5" fill="none" stroke-linecap="round"/><circle cx="146" cy="116" r="6" fill="#4a2b33"/><path d="M104 148 Q120 162 136 148" stroke="#4a2b33" stroke-width="5" fill="none" stroke-linecap="round"/><ellipse cx="76" cy="134" rx="10" ry="6" fill="#f78ca8" opacity="0.55"/><ellipse cx="164" cy="134" rx="10" ry="6" fill="#f78ca8" opacity="0.55"/><path class="fx" d="M184 76.2 C184 76.2 172.1 67.7 172.1 60.9 C172.1 54.95 178.05 53.25 180.94 56.65 L184 59.2 L187.06 56.65 C189.95 53.25 195.9 54.95 195.9 60.9 C195.9 67.7 184 76.2 184 76.2 Z" fill="#e0426a"/></g></svg>