<svg xmlns="http://www.w3.org/2000/svg" viewBox="0 0 240 240"><g class="c"><rect x="36" y="52" width="168" height="152" rx="72" fill="#fdf0dc" stroke="#f2ddbd" stroke-width="4"/><path d="M94 119 C94 119 81 110 81 103 C81 97 87 95 90.5 99 L94 102 L97.5 99 C101 95 107 97 107 103 C107 110 94 119 94 119 Z" fill="#e0426a"/><path d="M146 119 C146 119 133 110 133 103 C133 97 139 95 142.5 99 L146 102 L149.5 99 C153 95 159 97 159 103 C159 110 146 119 146 119 Z" fill="#e0426a"/><path d="M102 140 Q120 166 138 140 Z" fill="#4a2b33"/><path d="M110 152 Q120 160 130 152" fill="#f27d95"/></g></svg>