<svg xmlns="http://www.w3.org/2000/svg" viewBox="0 0 240 240"><g class="c"><rect x="36" y="52" width="168" height="152" rx="72" fill="#fdf0dc" stroke="#f2ddbd" stroke-width="4"/><path d="M84 111 Q94 100 104 111" stroke="#4a2b33" stroke-width="5" fill="none" stroke-linecap="round"/><path d="M136 112 L156 112" stroke="#4a2b33" stroke-width="5" stroke-linecap="round"/><path class="" d="M120 151.6 C120 151.6 108.8 143.6 108.8 137.2 C108.8 131.6 114.4 130 117.12 133.2 L120 135.6 L122.88 133.2 C125.6 130 131.2 131.6 131.2 137.2 C131.2 143.6 120 151.6 120 151.6 Z" fill="#e0426a"/><ellipse cx="76" cy="128" rx="10" ry="6" fill="#f78ca8" opacity="0.55"/><ellipse cx="164" cy="128" rx="10" ry="6" fill="#f78ca8" opacity="0.55"/><path class="fx" d="M186 109.2 C186 109.2 170.6 98.2 170.6 89.4 C170.6 81.7 178.3 79.5 182.04 83.9 L186 87.2 L189.96 83.9 C193.7 79.5 201.4 81.7 201.4 89.4 C201.4 98.2 186 109.2 186 109.2 Z" fill="#e0426a"/></g></svg>