<svg xmlns="http://www.w3.org/2000/svg" viewBox="0 0 240 240"><g class="c"><rect x="36" y="52" width="168" height="152" rx="72" fill="#fdf0dc" stroke="#f2ddbd" stroke-width="4"/><path d="M94 99 L97.2 106.4 L105 107.2 L99 112.8 L100.8 120.4 L94 116 L87.2 120.4 L89 112.8 L83 107.2 L90.8 106.4 Z" fill="#f5b433"/><path d="M146 99 L149.2 106.4 L157 107.2 L151 112.8 L152.8 120.4 L146 116 L139.2 120.4 L141 112.8 L135 107.2 L142.8 106.4 Z" fill="#f5b433"/><path d="M102 138 Q120 164 138 138 Z" fill="#4a2b33"/><path d="M110 150 Q120 158 130 150" fill="#f27d95"/><g class="fx"><circle cx="48" cy="56" r="5" fill="#f5b433"/><circle cx="66" cy="40" r="5" fill="#7fb069"/><circle cx="186" cy="44" r="5" fill="#7db8e8"/><circle cx="200" cy="64" r="5" fill="#e0426a"/></g><path d="M112 30 L136 22 L128 46 Z" fill="#e0426a"/></g></svg>