<svg xmlns="http://www.w3.org/2000/svg" viewBox="0 0 240 240"><style>@keyframes m{0%,100%{transform:translateX(0)}25%{transform:translateX(-7px)}75%{transform:translateX(7px)}}.c{animation:m 0.5s linear infinite}@keyframes f{0%{opacity:0;transform:translateY(6px)}30%{opacity:1}100%{opacity:0;transform:translateY(-14px)}}.fx{animation:f 1.4s ease-out infinite}.fx2{animation:f 1.4s ease-out 0.5s infinite}</style><g class="c"><path d="M120 208 C120 208 34 149 34 92 C34 60 57 40 82 40 C100 40 113 51 120 66 C127 51 140 40 158 40 C183 40 206 60 206 92 C206 149 120 208 120 208 Z" fill="#f2a5b5" stroke="#e07c93" stroke-width="4"/><path d="M82 98 L106 108 M158 98 L134 108" stroke="#4a2b33" stroke-width="5" stroke-linecap="round"/><circle cx="94" cy="116" r="6" fill="#4a2b33"/><circle cx="146" cy="116" r="6" fill="#4a2b33"/><path d="M102 148 Q111 140 120 148 Q129 156 138 148" stroke="#4a2b33" stroke-width="5" fill="none" stroke-linecap="round"/><path class="fx" d="M186 76 l10 -10 M192 88 l14 -4 M178 70 l4 -14" stroke="#e0426a" stroke-width="5" stroke-linecap="round"/></g></svg>