<svg xmlns="http://www.w3.org/2000/svg" viewBox="0 0 240 240"><style>@keyframes m{0%,100%{transform:translateX(0)}25%{transform:translateX(-7px)}75%{transform:translateX(7px)}}.c{animation:m 0.5s linear infinite}@keyframes f{0%{opacity:0;transform:translateY(6px)}30%{opacity:1}100%{opacity:0;transform:translateY(-14px)}}.fx{animation:f 1.4s ease-out infinite}.fx2{animation:f 1.4s ease-out 0.5s infinite}</style><g class="c"><path d="M120 208 C120 208 34 149 34 92 C34 60 57 40 82 40 C100 40 113 51 120 66 C127 51 140 40 158 40 C183 40 206 60 206 92 C206 149 120 208 120 208 Z" fill="#f2a5b5" stroke="#e07c93" stroke-width="4"/><path d="M84 106 Q94 114 104 106" stroke="#4a2b33" stroke-width="5" fill="none" stroke-linecap="round"/><path d="M136 106 Q146 114 156 106" stroke="#4a2b33" stroke-width="5" fill="none" stroke-linecap="round"/><path d="M102 140 Q120 166 138 140 Z" fill="#4a2b33"/><path d="M110 152 Q120 160 130 152" fill="#f27d95"/><path class="fx" d="M94 122 C88 132 88 138 94 142 C100 138 100 132 94 122 Z" fill="#7db8e8"/><path class="fx2" d="M146 122 C140 132 140 138 146 142 C152 138 152 132 146 122 Z" fill="#7db8e8"/></g></svg>