<svg xmlns="http://www.w3.org/2000/svg" viewBox="0 0 240 240"><style>@keyframes m{0%,100%{transform:scale(1)}50%{transform:scale(1.07)}}.c{animation:m 0.9s ease-in-out infinite;transform-origin:120px 130px}@keyframes f{0%{opacity:0;transform:translateY(6px)}30%{opacity:1}100%{opacity:0;transform:translateY(-14px)}}.fx{animation:f 1.4s ease-out infinite}.fx2{animation:f 1.4s ease-out 0.5s infinite}</style><g class="c"><path d="M120 208 C120 208 34 149 34 92 C34 60 57 40 82 40 C100 40 113 51 120 66 C127 51 140 40 158 40 C183 40 206 60 206 92 C206 149 120 208 120 208 Z" fill="#f2a5b5" stroke="#e07c93" stroke-width="4"/><path d="M94 121 C94 121 81 112 81 105 C81 99 87 97 90.5 101 L94 104 L97.5 101 C101 97 107 99 107 105 C107 112 94 121 94 121 Z" fill="#e0426a"/><path d="M146 121 C146 121 133 112 133 105 C133 99 139 97 142.5 101 L146 104 L149.5 101 C153 97 159 99 159 105 C159 112 146 121 146 121 Z" fill="#e0426a"/><path d="M102 142 Q120 168 138 142 Z" fill="#4a2b33"/><path d="M110 154 Q120 162 130 154" fill="#f27d95"/></g></svg>