<svg xmlns="http://www.w3.org/2000/svg" viewBox="0 0 240 240"><style>@keyframes m{0%,100%{transform:translateY(0)}50%{transform:translateY(-10px)}}.c{animation:m 1.1s ease-in-out infinite}@keyframes f{0%{opacity:0;transform:translateY(6px)}30%{opacity:1}100%{opacity:0;transform:translateY(-14px)}}.fx{animation:f 1.4s ease-out infinite}.fx2{animation:f 1.4s ease-out 0.5s infinite}</style><g class="c"><path d="M120 208 C120 208 34 149 34 92 C34 60 57 40 82 40 C100 40 113 51 120 66 C127 51 140 40 158 40 C183 40 206 60 206 92 C206 149 120 208 120 208 Z" fill="#f2a5b5" stroke="#e07c93" stroke-width="4"/><path d="M84 113 Q94 102 104 113" stroke="#4a2b33" stroke-width="5" fill="none" stroke-linecap="round"/><path d="M136 114 L156 114" stroke="#4a2b33" stroke-width="5" stroke-linecap="round"/><path class="" d="M120 153.6 C120 153.6 108.8 145.6 108.8 139.2 C108.8 133.6 114.4 132 117.12 135.2 L120 137.6 L122.88 135.2 C125.6 132 131.2 133.6 131.2 139.2 C131.2 145.6 120 153.6 120 153.6 Z" fill="#e0426a"/><ellipse cx="76" cy="130" rx="10" ry="6" fill="#f78ca8" opacity="0.55"/><ellipse cx="164" cy="130" rx="10" ry="6" fill="#f78ca8" opacity="0.55"/><path class="fx" d="M186 111.2 C186 111.2 170.6 100.2 170.6 91.4 C170.6 83.7 178.3 81.5 182.04 85.9 L186 89.2 L189.96 85.9 C193.7 81.5 201.4 83.7 201.4 91.4 C201.4 100.2 186 111.2 186 111.2 Z" fill="#e0426a"/></g></svg>