<svg xmlns="http://www.w3.org/2000/svg" viewBox="0 0 240 240"><style>@keyframes m{0%,100%{transform:translateY(0)}50%{transform:translateY(-10px)}}.c{animation:m 1.1s ease-in-out infinite}@keyframes f{0%{opacity:0;transform:translateY(6px)}30%{opacity:1}100%{opacity:0;transform:translateY(-14px)}}.fx{animation:f 1.4s ease-out infinite}.fx2{animation:f 1.4s ease-out 0.5s infinite}</style><g class="c"><path d="M120 208 C120 208 34 149 34 92 C34 60 57 40 82 40 C100 40 113 51 120 66 C127 51 140 40 158 40 C183 40 206 60 206 92 C206 149 120 208 120 208 Z" fill="#f2a5b5" stroke="#e07c93" stroke-width="4"/><path d="M84 113 Q94 102 104 113" stroke="#4a2b33" stroke-width="5" fill="none" stroke-linecap="round"/><path d="M136 113 Q146 102 156 113" stroke="#4a2b33" stroke-width="5" fill="none" stroke-linecap="round"/><path d="M104 144 Q120 158 136 144" stroke="#4a2b33" stroke-width="5" fill="none" stroke-linecap="round"/><circle class="fx" cx="188" cy="162" r="22" fill="#fff" stroke="#7fb069" stroke-width="4"/><text class="fx" x="175" y="169" font-family="sans-serif" font-weight="bold" font-size="18" fill="#7fb069">OK</text></g></svg>