<svg xmlns="http://www.w3.org/2000/svg" viewBox="0 0 240 240"><style>@keyframes m{0%,100%{transform:rotate(-4deg)}50%{transform:rotate(4deg)}}.c{animation:m 1.6s ease-in-out infinite;transform-origin:120px 200px}@keyframes f{0%{opacity:0;transform:translateY(6px)}30%{opacity:1}100%{opacity:0;transform:translateY(-14px)}}.fx{animation:f 1.4s ease-out infinite}.fx2{animation:f 1.4s ease-out 0.5s infinite}</style><g class="c"><path d="M120 208 C120 208 34 149 34 92 C34 60 57 40 82 40 C100 40 113 51 120 66 C127 51 140 40 158 40 C183 40 206 60 206 92 C206 149 120 208 120 208 Z" fill="#f2a5b5" stroke="#e07c93" stroke-width="4"/><circle cx="94" cy="114" r="6" fill="#4a2b33"/><circle cx="146" cy="114" r="6" fill="#4a2b33"/><path d="M104 154 Q120 140 136 154" stroke="#4a2b33" stroke-width="5" fill="none" stroke-linecap="round"/><path class="fx" d="M100 124 C94 134 94 140 100 144 C106 140 106 134 100 124 Z" fill="#7db8e8"/></g></svg>