<svg xmlns="http://www.w3.org/2000/svg" viewBox="0 0 240 240"><style>@keyframes m{0%,100%{transform:translateY(0)}50%{transform:translateY(-10px)}}.c{animation:m 1.1s ease-in-out infinite}@keyframes f{0%{opacity:0;transform:translateY(6px)}30%{opacity:1}100%{opacity:0;transform:translateY(-14px)}}.fx{animation:f 1.4s ease-out infinite}.fx2{animation:f 1.4s ease-out 0.5s infinite}</style><g class="c"><path d="M120 208 C120 208 34 149 34 92 C34 60 57 40 82 40 C100 40 113 51 120 66 C127 51 140 40 158 40 C183 40 206 60 206 92 C206 149 120 208 120 208 Z" fill="#f2a5b5" stroke="#e07c93" stroke-width="4"/><path d="M84 113 Q94 102 104 113" stroke="#4a2b33" stroke-width="5" fill="none" stroke-linecap="round"/><path d="M138 104 L154 120 M154 104 L138 120" stroke="#4a2b33" stroke-width="5" stroke-linecap="round"/><path d="M104 140 Q120 150 136 140" stroke="#4a2b33" stroke-width="5" fill="none" stroke-linecap="round"/><path class="fx" d="M114 144 Q120 168 128 144 Z" fill="#f27d95" stroke="#d76c81" stroke-width="2"/></g></svg>