<svg xmlns="http://www.w3.org/2000/svg" viewBox="0 0 240 240"><g class="c"><path d="M56 76 L48 32 L92 54 Z" fill="#d8d3ce" stroke="#bdb6b0" stroke-width="4"/><path d="M184 76 L192 32 L148 54 Z" fill="#d8d3ce" stroke="#bdb6b0" stroke-width="4"/><circle cx="120" cy="128" r="78" fill="#d8d3ce" stroke="#bdb6b0" stroke-width="4"/><path d="M28 120 L64 126 M28 146 L64 142 M212 120 L176 126 M212 146 L176 142" stroke="#bdb6b0" stroke-width="3" stroke-linecap="round"/><path d="M82 98 L106 108 M158 98 L134 108" stroke="#4a2b33" stroke-width="5" stroke-linecap="round"/><circle cx="94" cy="116" r="6" fill="#4a2b33"/><circle cx="146" cy="116" r="6" fill="#4a2b33"/><path d="M102 148 Q111 140 120 148 Q129 156 138 148" stroke="#4a2b33" stroke-width="5" fill="none" stroke-linecap="round"/><path class="fx" d="M186 76 l10 -10 M192 88 l14 -4 M178 70 l4 -14" stroke="#e0426a" stroke-width="5" stroke-linecap="round"/></g></svg>