<svg xmlns="http://www.w3.org/2000/svg" viewBox="0 0 240 240"><g class="c"><path d="M56 76 L48 32 L92 54 Z" fill="#d8d3ce" stroke="#bdb6b0" stroke-width="4"/><path d="M184 76 L192 32 L148 54 Z" fill="#d8d3ce" stroke="#bdb6b0" stroke-width="4"/><circle cx="120" cy="128" r="78" fill="#d8d3ce" stroke="#bdb6b0" stroke-width="4"/><path d="M28 120 L64 126 M28 146 L64 142 M212 120 L176 126 M212 146 L176 142" stroke="#bdb6b0" stroke-width="3" stroke-linecap="round"/><path d="M84 113 Q94 102 104 113" stroke="#4a2b33" stroke-width="5" fill="none" stroke-linecap="round"/><path d="M136 113 Q146 102 156 113" stroke="#4a2b33" stroke-width="5" fill="none" stroke-linecap="round"/><path d="M102 140 Q120 166 138 140 Z" fill="#4a2b33"/><path d="M110 152 Q120 160 130 152" fill="#f27d95"/><ellipse class="fx" cx="52" cy="172" rx="13" ry="17" fill="#f2a5b5"/><ellipse class="fx2" cx="188" cy="172" rx="13" ry="17" fill="#f2a5b5"/><path d="M34 154 l-8 -8 M206 154 l8 -8 M30 174 l-11 0 M210 174 l11 0" stroke="#e0a63f" stroke-width="4" stroke-linecap="round"/></g></svg>