<svg xmlns="http://www.w3.org/2000/svg" viewBox="0 0 240 240"><g class="c"><path d="M56 76 L48 32 L92 54 Z" fill="#d8d3ce" stroke="#bdb6b0" stroke-width="4"/><path d="M184 76 L192 32 L148 54 Z" fill="#d8d3ce" stroke="#bdb6b0" stroke-width="4"/><circle cx="120" cy="128" r="78" fill="#d8d3ce" stroke="#bdb6b0" stroke-width="4"/><path d="M28 120 L64 126 M28 146 L64 142 M212 120 L176 126 M212 146 L176 142" stroke="#bdb6b0" stroke-width="3" stroke-linecap="round"/><path d="M84 106 Q94 114 104 106" stroke="#4a2b33" stroke-width="5" fill="none" stroke-linecap="round"/><path d="M136 106 Q146 114 156 106" stroke="#4a2b33" stroke-width="5" fill="none" stroke-linecap="round"/><path d="M102 140 Q120 166 138 140 Z" fill="#4a2b33"/><path d="M110 152 Q120 160 130 152" fill="#f27d95"/><path class="fx" d="M94 122 C88 132 88 138 94 142 C100 138 100 132 94 122 Z" fill="#7db8e8"/><path class="fx2" d="M146 122 C140 132 140 138 146 142 C152 138 152 132 146 122 Z" fill="#7db8e8"/></g></svg>