<svg xmlns="http://www.w3.org/2000/svg" viewBox="0 0 240 240"><g class="c"><path d="M56 76 L48 32 L92 54 Z" fill="#d8d3ce" stroke="#bdb6b0" stroke-width="4"/><path d="M184 76 L192 32 L148 54 Z" fill="#d8d3ce" stroke="#bdb6b0" stroke-width="4"/><circle cx="120" cy="128" r="78" fill="#d8d3ce" stroke="#bdb6b0" stroke-width="4"/><path d="M28 120 L64 126 M28 146 L64 142 M212 120 L176 126 M212 146 L176 142" stroke="#bdb6b0" stroke-width="3" stroke-linecap="round"/><path d="M84 113 Q94 102 104 113" stroke="#4a2b33" stroke-width="5" fill="none" stroke-linecap="round"/><path d="M136 114 L156 114" stroke="#4a2b33" stroke-width="5" stroke-linecap="round"/><path class="" d="M120 153.6 C120 153.6 108.8 145.6 108.8 139.2 C108.8 133.6 114.4 132 117.12 135.2 L120 137.6 L122.88 135.2 C125.6 132 131.2 133.6 131.2 139.2 C131.2 145.6 120 153.6 120 153.6 Z" fill="#e0426a"/><ellipse cx="76" cy="130" rx="10" ry="6" fill="#f78ca8" opacity="0.55"/><ellipse cx="164" cy="130" rx="10" ry="6" fill="#f78ca8" opacity="0.55"/><path class="fx" d="M186 111.2 C186 111.2 170.6 100.2 170.6 91.4 C170.6 83.7 178.3 81.5 182.04 85.9 L186 89.2 L189.96 85.9 C193.7 81.5 201.4 83.7 201.4 91.4 C201.4 100.2 186 111.2 186 111.2 Z" fill="#e0426a"/></g></svg>