<svg xmlns="http://www.w3.org/2000/svg" viewBox="0 0 240 240"><g class="c"><path d="M56 76 L48 32 L92 54 Z" fill="#d8d3ce" stroke="#bdb6b0" stroke-width="4"/><path d="M184 76 L192 32 L148 54 Z" fill="#d8d3ce" stroke="#bdb6b0" stroke-width="4"/><circle cx="120" cy="128" r="78" fill="#d8d3ce" stroke="#bdb6b0" stroke-width="4"/><path d="M28 120 L64 126 M28 146 L64 142 M212 120 L176 126 M212 146 L176 142" stroke="#bdb6b0" stroke-width="3" stroke-linecap="round"/><path d="M86 104 L102 120 M102 104 L86 120" stroke="#4a2b33" stroke-width="5" stroke-linecap="round"/><path d="M138 104 L154 120 M154 104 L138 120" stroke="#4a2b33" stroke-width="5" stroke-linecap="round"/><path d="M102 140 Q120 166 138 140 Z" fill="#4a2b33"/><path d="M110 152 Q120 160 130 152" fill="#f27d95"/><text class="fx" x="168" y="94" font-family="sans-serif" font-weight="bold" font-size="26" fill="#b0455c">ㅋㅋ</text></g></svg>