<svg xmlns="http://www.w3.org/2000/svg" viewBox="0 0 240 240"><g class="c"><path d="M56 76 L48 32 L92 54 Z" fill="#d8d3ce" stroke="#bdb6b0" stroke-width="4"/><path d="M184 76 L192 32 L148 54 Z" fill="#d8d3ce" stroke="#bdb6b0" stroke-width="4"/><circle cx="120" cy="128" r="78" fill="#d8d3ce" stroke="#bdb6b0" stroke-width="4"/><path d="M28 120 L64 126 M28 146 L64 142 M212 120 L176 126 M212 146 L176 142" stroke="#bdb6b0" stroke-width="3" stroke-linecap="round"/><path d="M84 113 Q94 102 104 113" stroke="#4a2b33" stroke-width="5" fill="none" stroke-linecap="round"/><path d="M136 113 Q146 102 156 113" stroke="#4a2b33" stroke-width="5" fill="none" stroke-linecap="round"/><path d="M102 140 Q120 166 138 140 Z" fill="#4a2b33"/><path d="M110 152 Q120 160 130 152" fill="#f27d95"/><ellipse cx="76" cy="132" rx="10" ry="6" fill="#f78ca8" opacity="0.55"/><ellipse cx="164" cy="132" rx="10" ry="6" fill="#f78ca8" opacity="0.55"/><path class="fx" d="M190 69.6 C190 69.6 171.8 56.6 171.8 46.2 C171.8 37.099999999999994 180.9 34.5 185.32 39.7 L190 43.6 L194.68 39.7 C199.1 34.5 208.2 37.099999999999994 208.2 46.2 C208.2 56.6 190 69.6 190 69.6 Z" fill="#e0426a"/><path class="fx2" d="M52 84.8 C52 84.8 39.4 75.8 39.4 68.6 C39.4 62.3 45.7 60.5 48.76 64.1 L52 66.8 L55.24 64.1 C58.3 60.5 64.6 62.3 64.6 68.6 C64.6 75.8 52 84.8 52 84.8 Z" fill="#e0426a"/></g></svg>