<svg xmlns="http://www.w3.org/2000/svg" viewBox="0 0 240 240"><g class="c"><path d="M56 76 L48 32 L92 54 Z" fill="#d8d3ce" stroke="#bdb6b0" stroke-width="4"/><path d="M184 76 L192 32 L148 54 Z" fill="#d8d3ce" stroke="#bdb6b0" stroke-width="4"/><circle cx="120" cy="128" r="78" fill="#d8d3ce" stroke="#bdb6b0" stroke-width="4"/><path d="M28 120 L64 126 M28 146 L64 142 M212 120 L176 126 M212 146 L176 142" stroke="#bdb6b0" stroke-width="3" stroke-linecap="round"/><path d="M86 104 L102 120 M102 104 L86 120" stroke="#4a2b33" stroke-width="5" stroke-linecap="round"/><path d="M138 104 L154 120 M154 104 L138 120" stroke="#4a2b33" stroke-width="5" stroke-linecap="round"/><path d="M102 148 Q111 140 120 148 Q129 156 138 148" stroke="#4a2b33" stroke-width="5" fill="none" stroke-linecap="round"/><rect x="86" y="70" width="68" height="20" rx="10" fill="#fff" stroke="#7db8e8" stroke-width="3"/><path d="M96 80 h48" stroke="#7db8e8" stroke-width="3" stroke-dasharray="5 5"/><path class="fx" d="M170 104 C164 114 164 120 170 124 C176 120 176 114 170 104 Z" fill="#7db8e8"/></g></svg>